<svg width="54" height="56" viewBox="0 0 54 56" fill="none" xmlns="http://www.w3.org/2000/svg">
<path d="M30.625 33.5781C31.0469 34.0469 31.0469 34.75 30.625 35.1719C30.1562 35.6406 29.4531 35.6406 29.0312 35.1719L23.5 29.5938L17.9219 35.1719C17.4531 35.6406 16.75 35.6406 16.3281 35.1719C15.8594 34.75 15.8594 34.0469 16.3281 33.5781L21.9062 28L16.3281 22.4219C15.8594 21.9531 15.8594 21.25 16.3281 20.8281C16.75 20.3594 17.4531 20.3594 17.875 20.8281L23.5 26.4531L29.0781 20.875C29.5 20.4062 30.2031 20.4062 30.625 20.875C31.0938 21.2969 31.0938 22 30.625 22.4688L25.0469 28L30.625 33.5781Z" fill="#00A3C9"/>
</svg>
