<svg width="13" height="13" viewBox="0 0 13 13" fill="none" xmlns="http://www.w3.org/2000/svg">
<path d="M0.142785 0.142785C-0.0302877 0.315859 -0.0460215 0.58669 0.0955839 0.777538L0.142785 0.832215L2.76525 3.45468C1.51596 4.33184 0.582253 5.64195 0.194275 7.19185C0.128895 7.45303 0.287622 7.71776 0.548802 7.78314C0.809982 7.84852 1.07471 7.68979 1.14009 7.42861C1.48425 6.05376 2.33423 4.90066 3.46721 4.15644L4.64347 5.33276C4.18358 5.80176 3.9 6.44427 3.9 7.15301C3.9 8.58895 5.06406 9.75301 6.5 9.75301C7.20874 9.75301 7.85125 9.46943 8.32024 9.00954L12.1678 12.8572C12.3582 13.0476 12.6668 13.0476 12.8572 12.8572C13.0303 12.6841 13.046 12.4133 12.9044 12.2225L12.8572 12.1678L8.88341 8.19356L8.8842 8.1926L8.10415 7.41398L6.23868 5.54891L6.24 5.5484L4.3672 3.67758L4.368 3.6764L3.63137 2.94157L0.832215 0.142785C0.641835 -0.0475951 0.333166 -0.0475951 0.142785 0.142785ZM5.33265 6.02256L7.63045 8.32036C7.33797 8.60365 6.93935 8.77801 6.5 8.77801C5.60254 8.77801 4.875 8.05047 4.875 7.15301C4.875 6.71366 5.04936 6.31504 5.33265 6.02256ZM6.5 2.275C5.84983 2.275 5.21894 2.37125 4.62221 2.55125L5.42624 3.35477C5.77451 3.28596 6.13366 3.25 6.5 3.25C9.04999 3.25 11.2514 4.99217 11.8606 7.43155C11.9259 7.69276 12.1905 7.85164 12.4517 7.7864C12.713 7.72117 12.8718 7.45652 12.8066 7.19531C12.0896 4.32427 9.50009 2.275 6.5 2.275ZM6.62654 4.55603L9.0974 7.0265C9.03126 5.6895 7.96071 4.61997 6.62654 4.55603Z" fill="white"/>
</svg>
